#!OML:ASF E:\Style4\Style4.ASF
:FULLY-SPECIFIED
:DEGREES
989
root -0.189187 17.4458 -1.68343 8.10964 2.43555 3.84456
lowerback 5.67897 1.7195 0.43801
upperback -0.222216 2.29056 -0.884443
thorax -3.35849 1.12411 -1.3507
lowerneck 3.04589 -4.21325 -8.60559
upperneck 5.55527 -6.00576 5.8869
head 1.74 -3.09611 3.39076
rclavicle -5.46658e-015 8.34896e-015
rhumerus -96.1436 57.8942 -131.819
rradius 86.8854
rwrist 2.02308
rhand -16.8303 38.0423
rfingers 7.12502
rthumb 9.39913 8.27189
lclavicle -5.46658e-015 8.34896e-015
lhumerus -6.87241 27.5341 4.40821
lradius 78.6888
lwrist -12.3167
lhand -12.0505 34.253
lfingers 7.12502
lthumb 14.0083 63.761
rfemur -25.9594 -1.38957 14.7555
rtibia 43.5552
rfoot -23.8964 -15.6384
rtoes -9.75606
lfemur -24.2861 -2.69113 -22.1512
ltibia 39.2643
lfoot -22.1536 4.97104
ltoes -11.6168
990
root -0.191077 17.4416 -1.68539 8.07916 2.47459 3.85337
lowerback 5.70054 1.74566 0.466525
upperback -0.208024 2.3259 -0.928611
thorax -3.3521 1.14094 -1.41555
lowerneck 3.16403 -4.26438 -8.53614
upperneck 5.52173 -6.07826 5.82811
head 1.70853 -3.1327 3.35861
rclavicle -2.96189e-014 1.11319e-014
rhumerus -96.1181 57.8645 -131.827
rradius 86.9186
rwrist 1.98367
rhand -16.811 37.9231
rfingers 7.12502
rthumb 9.41768 8.15356
lclavicle -2.96189e-014 1.11319e-014
lhumerus -7.21893 27.4941 4.383
lradius 79.6054
lwrist -12.2695
lhand -12.005 34.4988
lfingers 7.12502
lthumb 14.0522 64.0037
rfemur -25.9822 -1.41752 14.7612
rtibia 43.66
rfoot -23.934 -15.703
rtoes -9.80689
lfemur -24.32 -2.69027 -22.1502
ltibia 39.3684
lfoot -22.2598 4.90565
ltoes -11.4392
991
root -0.192223 17.4359 -1.68726 8.03754 2.52277 3.82478
lowerback 5.73688 1.76468 0.532095
upperback -0.197493 2.3548 -0.956075
thorax -3.35708 1.15397 -1.48405
lowerneck 3.24346 -4.30391 -8.49008
upperneck 5.52896 -6.135 5.7987
head 1.69825 -3.16142 3.3404
rclavicle -5.96354e-015 4.37326e-015
rhumerus -96.2053 57.8605 -131.914
rradius 86.9588
rwrist 1.95292
rhand -16.8377 37.911
rfingers 7.12502
rthumb 9.39198 8.14021
lclavicle -5.96354e-015 4.37326e-015
lhumerus -7.57695 27.4567 4.34205
lradius 80.5299
lwrist -12.1626
lhand -11.8013 34.6878
lfingers 7.12502
lthumb 14.2484 64.179
rfemur -25.9919 -1.47401 14.7993
rtibia 43.7694
rfoot -24.0406 -15.6419
rtoes -9.63191
lfemur -24.3435 -2.68648 -22.1113
ltibia 39.4733
lfoot -22.3553 4.89144
ltoes -11.8402
992
root -0.19328 17.4308 -1.68857 8.02272 2.58659 3.84337
lowerback 5.74444 1.77285 0.517584
upperback -0.19468 2.36438 -0.966253
thorax -3.35831 1.1589 -1.48743
lowerneck 3.29362 -4.3296 -8.50185
upperneck 5.5608 -6.1739 5.79543
head 1.70331 -3.18198 3.34179
rclavicle -2.18663e-015 1.47101e-014
rhumerus -96.2106 57.8166 -131.889
rradius 86.9448
rwrist 1.95377
rhand -16.8472 37.996
rfingers 7.12502
rthumb 9.38281 8.22485
lclavicle -2.18663e-015 1.47101e-014
lhumerus -7.90773 27.4301 4.3263
lradius 81.3756
lwrist -12.091
lhand -11.545 34.7526
lfingers 7.12502
lthumb 14.4954 64.2263
rfemur -26.0215 -1.54114 14.7888
rtibia 43.8766
rfoot -24.1112 -15.6118
rtoes -9.76424
lfemur -24.4017 -2.69224 -22.1273
ltibia 39.5937
lfoot -22.2445 4.942
ltoes -12.5961
993
root -0.195521 17.4253 -1.69035 8.01602 2.60081 3.90021
lowerback 5.73892 1.78943 0.435667
upperback -0.175156 2.38018 -0.990035
thorax -3.33692 1.16821 -1.46672
lowerneck 3.30793 -4.36385 -8.4704
upperneck 5.61168 -6.22012 5.76963
head 1.7189 -3.2052 3.32602
rclavicle -2.64384e-014 6.75868e-015
rhumerus -96.1098 57.7906 -131.804
rradius 86.9305
rwrist 1.94008
rhand -16.8355 37.9685
rfingers 7.12502
rthumb 9.39405 8.19788
lclavicle -2.64384e-014 6.75868e-015
lhumerus -8.29413 27.4235 4.27476
lradius 82.259
lwrist -12.0063
lhand -11.377 35.0241
lfingers 7.12502
lthumb 14.6573 64.486
rfemur -26.0837 -1.58159 14.7377
rtibia 43.9935
rfoot -24.1478 -15.6074
rtoes -9.88029
lfemur -24.4706 -2.69417 -22.1818
ltibia 39.721
lfoot -22.0289 5.09859
ltoes -13.9477
